<?xml version="1.0" encoding="utf-8"?>
<!-- Generator: Adobe Illustrator 16.0.0, SVG Export Plug-In . SVG Version: 6.00 Build 0)  -->
<!DOCTYPE svg PUBLIC "-//W3C//DTD SVG 1.1//EN" "http://www.w3.org/Graphics/SVG/1.1/DTD/svg11.dtd">
<svg version="1.1" id="Layer_1" xmlns="http://www.w3.org/2000/svg" xmlns:xlink="http://www.w3.org/1999/xlink" x="0px" y="0px"
	 width="59px" height="56px" viewBox="0 0 59 56" enable-background="new 0 0 59 56" xml:space="preserve">
<path fill="#FF7062" d="M40,51c0,0.553-0.447,1-1,1H5c-0.553,0-1-0.447-1-1V14h6c2.209,0,4-1.791,4-4V4h25c0.553,0,1,0.447,1,1
	v15.102l4-4V4c0-2.209-1.791-4-4-4H13.656c-1.061,0-2.078,0.422-2.828,1.172l-9.656,9.656C0.422,11.578,0,12.596,0,13.656V52
	c0,2.209,1.791,4,4,4h36c2.209,0,4-1.791,4-4V35.898l-4,4V51z"/>
<polygon fill="#FF7062" points="19.874,25.489 32.356,41 59,8.667 30.834,31.281 "/>
</svg>
