<?xml version="1.0" encoding="utf-8"?>
<!-- Generator: Adobe Illustrator 16.0.0, SVG Export Plug-In . SVG Version: 6.00 Build 0)  -->
<!DOCTYPE svg PUBLIC "-//W3C//DTD SVG 1.1//EN" "http://www.w3.org/Graphics/SVG/1.1/DTD/svg11.dtd">
<svg version="1.1" id="_xF91C_迹_x5F_2" xmlns="http://www.w3.org/2000/svg" xmlns:xlink="http://www.w3.org/1999/xlink" x="0px"
	 y="0px" width="107.92px" height="107.92px" viewBox="0 0 107.92 107.92" enable-background="new 0 0 107.92 107.92"
	 xml:space="preserve">
<path fill="#9C9C9C" d="M91.93,15.87C81.77,5.71,68.25,0.12,53.84,0.12c-9.87,0-19.34,2.63-27.59,7.55
	c-0.51,0.31-1.03,0.63-1.54,0.96c-0.53,0.33-1.06,0.69-1.58,1.06c-0.45,0.3-0.89,0.62-1.33,0.95c-1.78,1.31-3.47,2.73-5.06,4.26
	l-0.03,0.03c-0.32,0.31-0.64,0.62-0.96,0.94c-0.43,0.41-0.83,0.83-1.22,1.26c-0.23,0.25-0.46,0.5-0.69,0.75
	c-0.3,0.34-0.61,0.68-0.9,1.03c-0.8,0.93-1.56,1.88-2.29,2.86c-0.23,0.31-0.46,0.63-0.69,0.95c-0.48,0.67-0.94,1.35-1.39,2.04
	c-0.26,0.4-0.51,0.81-0.76,1.22c-0.45,0.74-0.88,1.49-1.3,2.26c-0.2,0.37-0.39,0.74-0.59,1.11c-0.01,0.04-0.03,0.07-0.05,0.11
	c-0.19,0.36-0.37,0.73-0.55,1.09c0,0.01,0,0.02,0,0.02c-0.19,0.39-0.37,0.78-0.55,1.18c-0.13,0.27-0.25,0.55-0.36,0.82
	c-0.16,0.35-0.3,0.69-0.44,1.04c-0.02,0.04-0.03,0.08-0.05,0.12c-0.15,0.36-0.29,0.72-0.42,1.08c-0.02,0.05-0.04,0.11-0.06,0.16
	c-0.1,0.25-0.19,0.5-0.28,0.75c-0.11,0.31-0.22,0.62-0.32,0.93c-0.16,0.46-0.31,0.92-0.45,1.38c-0.1,0.33-0.2,0.65-0.29,0.98
	c-0.1,0.34-0.2,0.68-0.28,1.02c-0.1,0.37-0.19,0.73-0.28,1.1c-0.1,0.42-0.2,0.84-0.29,1.27c-0.12,0.5-0.22,1.01-0.31,1.51
	c-0.06,0.32-0.12,0.63-0.18,0.95c-0.08,0.52-0.16,1.03-0.24,1.55c-0.04,0.33-0.08,0.65-0.12,0.98c-0.02,0.14-0.04,0.28-0.05,0.41
	c-0.04,0.33-0.07,0.66-0.1,0.99C0.08,50.49,0,52.22,0,53.96c0,1.74,0.08,3.47,0.25,5.17c0.03,0.31,0.06,0.62,0.09,0.93
	c0.12,1.03,0.26,2.06,0.44,3.07c0.04,0.25,0.09,0.51,0.13,0.76c0.1,0.55,0.21,1.09,0.34,1.63c0.09,0.43,0.19,0.85,0.29,1.27
	c0.16,0.66,0.33,1.31,0.52,1.96c0.1,0.39,0.22,0.77,0.34,1.16c0.14,0.45,0.28,0.91,0.44,1.36c0.12,0.35,0.24,0.71,0.37,1.06
	c0.47,1.3,0.99,2.58,1.56,3.84c0.18,0.39,0.36,0.79,0.55,1.18c0.19,0.4,0.39,0.79,0.58,1.17c0.2,0.39,0.41,0.78,0.61,1.16
	c0.42,0.76,0.85,1.52,1.3,2.26c0.23,0.37,0.46,0.74,0.69,1.1c0.69,1.09,1.43,2.16,2.22,3.2c0.26,0.35,0.53,0.69,0.79,1.03
	c0.27,0.34,0.54,0.68,0.82,1.01c0.59,0.73,1.21,1.44,1.85,2.13c0.51,0.56,1.04,1.1,1.57,1.64c1.26,1.27,2.58,2.47,3.96,3.59
	c0.69,0.57,1.39,1.11,2.09,1.64c0.36,0.26,0.71,0.52,1.07,0.77c9,6.34,19.72,9.75,30.97,9.75c9.65,0,19.11-2.57,27.36-7.43
	l1.67-0.98l0.08,0.08c6.59-4.2,12.2-9.79,16.43-16.37l-0.11-0.11l0.98-1.66C112.72,60.16,109.3,33.24,91.93,15.87z M85.03,85.15
	c-8.32,8.32-19.39,12.9-31.19,12.9c-11.79,0-22.87-4.58-31.19-12.9c-17.19-17.2-17.19-45.18,0-62.37c8.32-8.32,19.4-12.9,31.19-12.9
	c11.8,0,22.87,4.58,31.19,12.9C102.23,39.97,102.23,67.95,85.03,85.15z"/>
<path fill="#9C9C9C" d="M80.33,52.23v4.54c0,2.72-2.21,4.93-4.93,4.93H61.76v13.64c0,2.71-2.21,4.92-4.93,4.92h-4.54
	c-2.71,0-4.92-2.21-4.92-4.92V61.7H33.73c-2.72,0-4.93-2.21-4.93-4.93v-4.54c0-2.71,2.21-4.92,4.93-4.92h13.64V33.67
	c0-2.72,2.21-4.93,4.92-4.93h4.54c2.72,0,4.93,2.21,4.93,4.93v13.64H75.4C78.12,47.31,80.33,49.52,80.33,52.23z"/>
<path fill="#9C9C9C" d="M80.33,52.23v4.54c0,2.72-2.21,4.93-4.93,4.93H61.76v13.64c0,2.71-2.21,4.92-4.93,4.92h-4.54
	c-2.71,0-4.92-2.21-4.92-4.92V61.7H33.73c-2.72,0-4.93-2.21-4.93-4.93v-4.54c0-2.71,2.21-4.92,4.93-4.92h13.64V33.67
	c0-2.72,2.21-4.93,4.92-4.93h4.54c2.72,0,4.93,2.21,4.93,4.93v13.64H75.4C78.12,47.31,80.33,49.52,80.33,52.23z"/>
<path fill="#9C9C9C" d="M53.96,0C43.83,0,34.35,2.79,26.25,7.67c-0.51,0.31-1.03,0.63-1.54,0.96c-0.53,0.33-1.06,0.69-1.58,1.06
	c-0.45,0.3-0.89,0.62-1.33,0.95c-1.78,1.31-3.47,2.73-5.06,4.26l-0.03,0.03c-0.32,0.31-0.64,0.62-0.96,0.94
	c-0.43,0.41-0.83,0.83-1.22,1.26c-0.23,0.25-0.46,0.5-0.69,0.75c-0.3,0.34-0.61,0.68-0.9,1.03c-0.8,0.93-1.56,1.88-2.29,2.86
	c-0.23,0.31-0.46,0.63-0.69,0.95c-0.48,0.67-0.94,1.35-1.39,2.04c-0.26,0.4-0.51,0.81-0.76,1.22c-0.45,0.74-0.88,1.49-1.3,2.26
	c-0.2,0.37-0.39,0.74-0.59,1.11c-0.01,0.04-0.03,0.07-0.05,0.11c-0.19,0.36-0.37,0.73-0.55,1.09c0,0.01,0,0.02,0,0.02
	c-0.19,0.39-0.37,0.78-0.55,1.18c-0.13,0.27-0.25,0.55-0.36,0.82c-0.16,0.35-0.3,0.69-0.44,1.04c-0.02,0.04-0.03,0.08-0.05,0.12
	c-0.15,0.36-0.29,0.72-0.42,1.08c-0.02,0.05-0.04,0.11-0.06,0.16c-0.1,0.25-0.19,0.5-0.28,0.75c-0.11,0.31-0.22,0.62-0.32,0.93
	c-0.16,0.46-0.31,0.92-0.45,1.38c-0.1,0.33-0.2,0.65-0.29,0.98c-0.1,0.34-0.2,0.68-0.28,1.02c-0.1,0.37-0.19,0.73-0.28,1.1
	c-0.1,0.42-0.2,0.84-0.29,1.27c-0.12,0.5-0.22,1.01-0.31,1.51c-0.06,0.32-0.12,0.63-0.18,0.95c-0.08,0.52-0.16,1.03-0.24,1.55
	c-0.04,0.33-0.08,0.65-0.12,0.98c-0.02,0.14-0.04,0.28-0.05,0.41c-0.04,0.33-0.07,0.66-0.1,0.99C0.08,50.49,0,52.22,0,53.96
	c0,1.74,0.08,3.47,0.25,5.17c0.03,0.31,0.06,0.62,0.09,0.93c0.12,1.03,0.26,2.06,0.44,3.07c0.04,0.25,0.09,0.51,0.13,0.76
	c0.1,0.55,0.21,1.09,0.34,1.63c0.09,0.43,0.19,0.85,0.29,1.27c0.16,0.66,0.33,1.31,0.52,1.96c0.1,0.39,0.22,0.77,0.34,1.16
	c0.14,0.45,0.28,0.91,0.44,1.36c0.12,0.35,0.24,0.71,0.37,1.06c0.47,1.3,0.99,2.58,1.56,3.84c0.18,0.39,0.36,0.79,0.55,1.18
	c0.19,0.4,0.39,0.79,0.58,1.17c0.2,0.39,0.41,0.78,0.61,1.16c0.42,0.76,0.85,1.52,1.3,2.26c0.23,0.37,0.46,0.74,0.69,1.1
	c0.71,1.1,1.45,2.16,2.22,3.2c0.26,0.35,0.53,0.69,0.79,1.03c0.27,0.34,0.54,0.68,0.82,1.01c0.59,0.73,1.21,1.44,1.85,2.13
	c0.51,0.56,1.04,1.1,1.57,1.64c1.26,1.27,2.58,2.47,3.96,3.59c0.69,0.57,1.39,1.11,2.09,1.64c0.36,0.26,0.71,0.52,1.07,0.77
	c8.78,6.22,19.51,9.87,31.09,9.87c10.67,0,20.62-3.1,28.99-8.45c6.59-4.2,12.2-9.79,16.43-16.37c5.4-8.4,8.54-18.4,8.54-29.14
	C107.92,24.15,83.76,0,53.96,0z M85.03,85.15c-8.32,8.32-19.39,12.9-31.19,12.9c-11.79,0-22.87-4.58-31.19-12.9
	c-17.19-17.2-17.19-45.18,0-62.37c8.32-8.32,19.4-12.9,31.19-12.9c11.8,0,22.87,4.58,31.19,12.9
	C102.23,39.97,102.23,67.95,85.03,85.15z"/>
</svg>
