<?xml version="1.0" encoding="utf-8"?>
<!-- Generator: Adobe Illustrator 16.0.0, SVG Export Plug-In . SVG Version: 6.00 Build 0)  -->
<!DOCTYPE svg PUBLIC "-//W3C//DTD SVG 1.1//EN" "http://www.w3.org/Graphics/SVG/1.1/DTD/svg11.dtd">
<svg version="1.1" id="_xF91C_迹_x5F_2" xmlns="http://www.w3.org/2000/svg" xmlns:xlink="http://www.w3.org/1999/xlink" x="0px"
	 y="0px" width="107.71px" height="107.68px" viewBox="0 0 107.71 107.68" enable-background="new 0 0 107.71 107.68"
	 xml:space="preserve">
<path fill="#9C9C9C" d="M105.01,37.01c-0.26-0.78-0.529-1.55-0.819-2.32c-0.15-0.41-0.311-0.81-0.48-1.22
	c-0.16-0.41-0.33-0.81-0.51-1.21c-0.25-0.57-0.5-1.13-0.771-1.68c-0.189-0.39-0.39-0.78-0.579-1.17c-0.2-0.39-0.41-0.77-0.61-1.15
	c-0.29-0.52-0.58-1.04-0.88-1.56c-0.3-0.51-0.61-1.02-0.931-1.53c-0.367-0.58-0.749-1.15-1.138-1.715
	c-1.848-2.721-3.963-5.306-6.362-7.705C81.771,5.59,68.24,0,53.84,0C39.43,0,25.9,5.59,15.75,15.75
	C6.86,24.65,1.47,36.11,0.271,48.5c-0.04,0.44-0.08,0.88-0.12,1.32c-0.03,0.44-0.061,0.89-0.08,1.33C0.021,52.07,0,53,0,53.93
	c0,0.46,0.01,0.93,0.021,1.39c0.02,0.85,0.06,1.7,0.13,2.54c0.029,0.45,0.069,0.89,0.109,1.33c0.091,0.89,0.19,1.77,0.32,2.64
	c0.07,0.44,0.14,0.87,0.21,1.31c0.08,0.43,0.16,0.87,0.24,1.3c0.17,0.86,0.37,1.72,0.58,2.57c0.109,0.42,0.22,0.85,0.33,1.27
	c0.239,0.85,0.489,1.68,0.76,2.51c0.28,0.83,0.57,1.66,0.88,2.47c0.311,0.81,0.65,1.62,1,2.42c0.53,1.2,1.11,2.38,1.72,3.53
	c0.21,0.39,0.42,0.77,0.63,1.15c0.44,0.76,0.891,1.51,1.351,2.26c0.53,0.84,1.08,1.66,1.66,2.46c1.729,2.41,3.67,4.7,5.81,6.85
	c10.15,10.16,23.68,15.75,38.09,15.75c9.65,0,19.11-2.57,27.36-7.43l1.67-0.99l0.04,0.04c6.58-4.21,12.17-9.82,16.38-16.4
	l-0.03-0.03l0.98-1.67C108.32,67.5,109.74,51.38,105.01,37.01z M85.021,85.03C76.71,93.34,65.63,97.92,53.84,97.92
	c-11.8,0-22.87-4.58-31.189-12.89c-17.2-17.2-17.2-45.18,0-62.38c8.319-8.32,19.39-12.9,31.189-12.9c11.79,0,22.87,4.58,31.181,12.9
	C102.22,39.85,102.22,67.83,85.021,85.03z"/>
<path fill="#9C9C9C" d="M33.724,47.182c-2.717,0-4.927,2.21-4.927,4.927v4.539c0,2.716,2.21,4.926,4.927,4.926h41.671
	c2.717,0,4.927-2.21,4.927-4.926v-4.539c0-2.717-2.21-4.927-4.927-4.927H33.724z"/>
</svg>
