<?xml version="1.0" encoding="utf-8"?>
<!-- Generator: Adobe Illustrator 16.0.0, SVG Export Plug-In . SVG Version: 6.00 Build 0)  -->
<!DOCTYPE svg PUBLIC "-//W3C//DTD SVG 1.1//EN" "http://www.w3.org/Graphics/SVG/1.1/DTD/svg11.dtd">
<svg version="1.1" id="contacts" xmlns="http://www.w3.org/2000/svg" xmlns:xlink="http://www.w3.org/1999/xlink" x="0px" y="0px"
	 width="95.527px" height="90.309px" viewBox="0 0 95.527 90.309" enable-background="new 0 0 95.527 90.309" xml:space="preserve">
<g id="_x31_5">
	<path fill="#3B3B3B" stroke="#3B3B3B" stroke-width="3" stroke-miterlimit="10" d="M13.209,87.55l6.529-20.833
		C8.27,59.872,1.5,49.217,1.5,37.808C1.5,17.787,22.255,1.5,47.766,1.5c25.509,0,46.262,16.287,46.262,36.308
		c0,20.022-20.753,36.313-46.262,36.313c-1.521,0-3.054-0.063-4.664-0.192L13.209,87.55L13.209,87.55z M47.766,7.5
		C25.563,7.5,7.5,21.096,7.5,37.808c0,9.853,6.44,19.137,17.229,24.834l2.208,1.166l-3.982,12.707l19.101-8.704l0.794,0.073
		c1.723,0.159,3.331,0.236,4.916,0.236c22.2,0,40.262-13.598,40.262-30.313C88.027,21.096,69.966,7.5,47.766,7.5L47.766,7.5z"/>
	<path fill="#3B3B3B" stroke="#3B3B3B" stroke-width="3" stroke-miterlimit="10" d="M47.764,44.329
		c-2.872,0-5.209-2.337-5.209-5.209s2.337-5.209,5.209-5.209s5.209,2.337,5.209,5.209S50.636,44.329,47.764,44.329L47.764,44.329z"
		/>
	<path fill="#3B3B3B" stroke="#3B3B3B" stroke-width="3" stroke-miterlimit="10" d="M30.431,44.329
		c-2.872,0-5.209-2.337-5.209-5.209s2.337-5.209,5.209-5.209s5.209,2.337,5.209,5.209S33.303,44.329,30.431,44.329L30.431,44.329z"
		/>
	<path fill="#3B3B3B" stroke="#3B3B3B" stroke-width="3" stroke-miterlimit="10" d="M65.098,44.329
		c-2.872,0-5.209-2.337-5.209-5.209s2.337-5.209,5.209-5.209s5.209,2.337,5.209,5.209S67.97,44.329,65.098,44.329L65.098,44.329z"/>
</g>
</svg>
