<?xml version="1.0" encoding="utf-8"?>
<!-- Generator: Adobe Illustrator 16.0.0, SVG Export Plug-In . SVG Version: 6.00 Build 0)  -->
<!DOCTYPE svg PUBLIC "-//W3C//DTD SVG 1.1//EN" "http://www.w3.org/Graphics/SVG/1.1/DTD/svg11.dtd">
<svg version="1.1" id="Calque_1" xmlns="http://www.w3.org/2000/svg" xmlns:xlink="http://www.w3.org/1999/xlink" x="0px" y="0px"
	 width="53.578px" height="61.731px" viewBox="0 0 53.578 61.731" enable-background="new 0 0 53.578 61.731" xml:space="preserve">
<g>
	<path fill="#FFFFFF" d="M39.865,0H14.977L14.91,0.038c-0.385,0.01-0.77,0.139-1.086,0.408L0.625,11.687
		c-0.355,0.303-0.557,0.719-0.602,1.151L0,12.835v38.594c0,2.75,2.25,5,5,5l26.299,0.01v-3.5L5,52.929c-0.813,0-1.5-0.687-1.5-1.5
		V13.837l10.969-9.342v10.273H8.992v3.5h8.969L17.969,3.5h21.896c0.814,0,1.5,0.688,1.5,1.5v18.976l3.5,3.514V5
		C44.865,2.25,42.615,0,39.865,0z"/>
	<path fill="#FFFFFF" d="M53.012,40.06L38.514,25.508c-0.505-0.508-1.171-0.762-1.838-0.762c-0.665,0-1.332,0.253-1.842,0.759
		L20.27,40.06c-0.527,0.527-0.65,1.628-0.291,2.504c0.17,0.408,0.59,1.102,1.475,1.103l9.945-0.016v-3.487l-6.283,0.002
		l11.556-11.548l11.506,11.549l-6.796-0.002l-0.019,19.817c0,0.037,0.009,0.071,0.011,0.106v0.148h0.015
		c0.124,0.845,0.845,1.495,1.725,1.495c0.967,0,1.75-0.783,1.75-1.75l0.019-16.316l6.744,0.002c0.842-0.001,1.473-0.4,1.775-1.126
		C53.746,41.708,53.574,40.624,53.012,40.06z"/>
</g>
</svg>
