<?xml version="1.0" encoding="utf-8"?>
<!-- Generator: Adobe Illustrator 16.0.0, SVG Export Plug-In . SVG Version: 6.00 Build 0)  -->
<!DOCTYPE svg PUBLIC "-//W3C//DTD SVG 1.1//EN" "http://www.w3.org/Graphics/SVG/1.1/DTD/svg11.dtd">
<svg version="1.1" id="Isolation_Mode" xmlns="http://www.w3.org/2000/svg" xmlns:xlink="http://www.w3.org/1999/xlink" x="0px"
	 y="0px" width="33.021px" height="28.559px" viewBox="0 0 33.021 28.559" enable-background="new 0 0 33.021 28.559"
	 xml:space="preserve">
<g>
	<polygon fill="#FFFFFF" points="4.16,15.885 4.16,28.559 28.69,28.559 28.69,15.885 16.439,7.73 	"/>
	<path fill="#FFFFFF" d="M32.21,10.195L17.516,0.316c-0.301-0.209-0.649-0.303-1.002-0.313C16.484,0.002,16.454,0,16.426,0
		c-0.031,0-0.06,0.002-0.093,0.004c-0.35,0.01-0.697,0.104-0.999,0.313L0.811,10.061c-0.904,0.619-1.076,1.936-0.391,2.938
		c0.684,0.998,1.976,1.311,2.878,0.691l13.125-8.813l13.299,8.945c0.903,0.623,2.194,0.311,2.88-0.691
		C33.29,12.129,33.112,10.813,32.21,10.195z"/>
</g>
</svg>
