<?xml version="1.0" encoding="utf-8"?>
<!-- Generator: Adobe Illustrator 16.0.0, SVG Export Plug-In . SVG Version: 6.00 Build 0)  -->
<!DOCTYPE svg PUBLIC "-//W3C//DTD SVG 1.1//EN" "http://www.w3.org/Graphics/SVG/1.1/DTD/svg11.dtd">
<svg version="1.1" id="icons" xmlns="http://www.w3.org/2000/svg" xmlns:xlink="http://www.w3.org/1999/xlink" x="0px" y="0px"
	 width="43.535px" height="49.268px" viewBox="0 0 43.535 49.268" enable-background="new 0 0 43.535 49.268" xml:space="preserve">
<g>
	<path fill="#44444D" d="M43.441,19.748c-0.022-0.251-0.059-0.499-0.089-0.748c-0.045-0.361-0.095-0.721-0.159-1.077
		c-0.056-0.32-0.119-0.637-0.189-0.952c-0.057-0.252-0.122-0.501-0.188-0.75c-0.361-1.385-0.857-2.725-1.488-4.005
		c-0.026-0.054-0.049-0.108-0.076-0.16c-0.205-0.407-0.427-0.804-0.657-1.197c-0.078-0.131-0.156-0.262-0.236-0.391
		c-0.224-0.364-0.454-0.725-0.701-1.076c-0.11-0.157-0.229-0.307-0.342-0.461c-0.359-0.484-0.738-0.954-1.141-1.41
		c-0.239-0.272-0.478-0.546-0.731-0.806c-0.063-0.065-0.119-0.137-0.183-0.201c-0.025-0.025-0.059-0.034-0.084-0.057
		c-2.196-2.18-4.871-3.911-7.909-4.988C29.22,1.45,29.17,1.444,29.12,1.431c-6.06-2.342-12.73-1.744-18.198,1.316
		c-0.084,0.035-0.17,0.067-0.25,0.114C10.563,2.924,10.46,3,10.352,3.064c-0.107,0.064-0.211,0.135-0.317,0.202
		C9.672,3.495,9.312,3.724,8.964,3.973C8.833,4.065,8.708,4.169,8.579,4.265C8.263,4.502,7.946,4.737,7.642,4.991
		c-0.188,0.16-0.367,0.333-0.552,0.5C6.856,5.7,6.618,5.904,6.393,6.125C5.984,6.524,5.591,6.943,5.212,7.38
		C4.835,7.814,4.481,8.26,4.145,8.718C3.856,9.109,3.588,9.512,3.33,9.919c-0.038,0.057-0.078,0.112-0.112,0.169
		c-1.164,1.854-2.013,3.865-2.551,5.975c-0.005,0.017-0.009,0.033-0.014,0.049c-0.121,0.476-0.223,0.958-0.31,1.446
		c-0.015,0.079-0.03,0.157-0.043,0.235c-0.074,0.435-0.133,0.874-0.181,1.316c-0.016,0.136-0.027,0.273-0.039,0.41
		c-0.022,0.238-0.055,0.475-0.069,0.716c-0.003,0.066,0.009,0.13,0.012,0.195c-0.181,3.95,0.713,7.958,2.752,11.548
		c0.108,0.193,0.248,0.358,0.406,0.496c0.587,0.509,1.455,0.619,2.169,0.215c0.907-0.516,1.224-1.669,0.71-2.575
		c-1.812-3.187-2.531-6.773-2.222-10.268c0.011-0.109,0.022-0.216,0.032-0.326c0.039-0.368,0.088-0.734,0.15-1.098
		c0.011-0.059,0.022-0.116,0.032-0.174c0.074-0.407,0.159-0.811,0.262-1.212c0-0.005,0.001-0.009,0.003-0.014
		c0.442-1.727,1.146-3.394,2.106-4.939c0.024-0.037,0.05-0.07,0.073-0.108c0.219-0.345,0.447-0.687,0.692-1.02
		c0.277-0.376,0.569-0.745,0.878-1.103c0.31-0.357,0.636-0.701,0.972-1.032C9.244,8.618,9.463,8.432,9.678,8.24
		c0.128-0.116,0.253-0.237,0.384-0.348c0.276-0.231,0.563-0.447,0.85-0.66c0.078-0.058,0.152-0.12,0.232-0.177
		c0.311-0.221,0.63-0.429,0.953-0.63c0.063-0.039,0.122-0.078,0.185-0.116c4.613-2.778,10.365-3.362,15.555-1.326
		c0.062,0.024,0.125,0.035,0.187,0.052c2.593,0.921,4.871,2.417,6.712,4.309c0.225,0.229,0.433,0.469,0.644,0.708
		c0.31,0.355,0.605,0.721,0.887,1.099c0.101,0.136,0.205,0.27,0.303,0.408c0.198,0.285,0.386,0.577,0.568,0.873
		c0.069,0.112,0.136,0.225,0.203,0.338c0.188,0.321,0.369,0.643,0.535,0.975c0.025,0.05,0.047,0.1,0.07,0.15
		c0.513,1.043,0.92,2.143,1.219,3.28c0.054,0.207,0.11,0.414,0.156,0.624c0.058,0.259,0.108,0.519,0.155,0.781
		c0.051,0.295,0.094,0.593,0.131,0.893c0.025,0.204,0.054,0.407,0.073,0.612c0.046,0.52,0.076,1.044,0.076,1.572
		c0,0.671-0.051,1.338-0.128,2.002c-0.015,0.138-0.03,0.278-0.049,0.416c-0.085,0.627-0.205,1.249-0.358,1.86
		c-0.038,0.153-0.085,0.303-0.127,0.454c-0.14,0.506-0.306,1.005-0.49,1.496c-0.064,0.169-0.123,0.34-0.192,0.506
		c-0.209,0.508-0.451,1.001-0.708,1.488c-2.026,3.835-5.434,6.895-9.699,8.405c-0.982,0.348-1.498,1.427-1.149,2.411
		c0.274,0.774,1.002,1.259,1.78,1.259c0.209,0,0.422-0.035,0.631-0.109c4.96-1.755,8.963-5.238,11.455-9.619
		c0.036-0.052,0.081-0.093,0.112-0.149c0.932-1.672,1.625-3.466,2.079-5.322c0.031-0.129,0.058-0.261,0.088-0.393
		c0.082-0.363,0.154-0.727,0.216-1.094c0.029-0.17,0.058-0.34,0.083-0.512c0.051-0.354,0.092-0.709,0.126-1.066
		c0.016-0.162,0.036-0.323,0.047-0.486c0.038-0.514,0.062-1.029,0.062-1.545C43.535,21.014,43.498,20.379,43.441,19.748z"/>
	<path fill="#44444D" d="M31.789,45.7l-7.997-4.129l4.257-8.243c0.478-0.927,0.115-2.066-0.813-2.544
		c-0.927-0.479-2.066-0.117-2.544,0.811l-5.122,9.92c-0.478,0.927-0.115,2.066,0.813,2.544l9.673,4.996
		c0.277,0.144,0.573,0.212,0.865,0.212c0.684,0,1.344-0.374,1.679-1.023C33.079,47.319,32.715,46.179,31.789,45.7z"/>
</g>
</svg>
