<?xml version="1.0" encoding="utf-8"?>
<!-- Generator: Adobe Illustrator 16.0.0, SVG Export Plug-In . SVG Version: 6.00 Build 0)  -->
<!DOCTYPE svg PUBLIC "-//W3C//DTD SVG 1.1//EN" "http://www.w3.org/Graphics/SVG/1.1/DTD/svg11.dtd">
<svg version="1.1" id="icons" xmlns="http://www.w3.org/2000/svg" xmlns:xlink="http://www.w3.org/1999/xlink" x="0px" y="0px"
	 width="42px" height="41px" viewBox="0 0 42 41" enable-background="new 0 0 42 41" xml:space="preserve">
<g>
	<g>
		<line fill="none" stroke="#A2A2A2" stroke-width="2" stroke-miterlimit="10" x1="41" y1="13" x2="1" y2="13"/>
	</g>
	<polyline fill="none" stroke="#A2A2A2" stroke-width="2" stroke-miterlimit="10" points="7,7 7,9 12,9 12,7 	"/>
	<polyline fill="none" stroke="#A2A2A2" stroke-width="2" stroke-miterlimit="10" points="30,7 30,9 35,9 35,7 	"/>
	<path fill="none" stroke="#A2A2A2" stroke-width="2" stroke-miterlimit="10" d="M7,5H3C1.896,5,1,5.896,1,7v31c0,1.104,0.896,2,2,2
		h36c1.104,0,2-0.896,2-2V7c0-1.104-0.896-2-2-2h-4V2c0-0.553-0.447-1-1-1h-3c-0.553,0-1,0.447-1,1v3H12V2c0-0.553-0.447-1-1-1H8
		C7.447,1,7,1.447,7,2V5z"/>
	<line fill="none" stroke="#A2A2A2" stroke-width="2" stroke-miterlimit="10" x1="15" y1="21" x2="19" y2="21"/>
	<line fill="none" stroke="#A2A2A2" stroke-width="2" stroke-miterlimit="10" x1="23" y1="21" x2="27" y2="21"/>
	<line fill="none" stroke="#A2A2A2" stroke-width="2" stroke-miterlimit="10" x1="31" y1="21" x2="35" y2="21"/>
	<line fill="none" stroke="#A2A2A2" stroke-width="2" stroke-miterlimit="10" x1="7" y1="26" x2="11" y2="26"/>
	<line fill="none" stroke="#A2A2A2" stroke-width="2" stroke-miterlimit="10" x1="15" y1="26" x2="19" y2="26"/>
	<line fill="none" stroke="#A2A2A2" stroke-width="2" stroke-miterlimit="10" x1="23" y1="26" x2="27" y2="26"/>
	<line fill="none" stroke="#A2A2A2" stroke-width="2" stroke-miterlimit="10" x1="31" y1="26" x2="35" y2="26"/>
	<line fill="none" stroke="#A2A2A2" stroke-width="2" stroke-miterlimit="10" x1="7" y1="31" x2="11" y2="31"/>
	<line fill="none" stroke="#A2A2A2" stroke-width="2" stroke-miterlimit="10" x1="15" y1="31" x2="19" y2="31"/>
	<line fill="none" stroke="#A2A2A2" stroke-width="2" stroke-miterlimit="10" x1="23" y1="31" x2="27" y2="31"/>
</g>
</svg>
