<?xml version="1.0" encoding="utf-8"?>
<!-- Generator: Adobe Illustrator 16.0.0, SVG Export Plug-In . SVG Version: 6.00 Build 0)  -->
<!DOCTYPE svg PUBLIC "-//W3C//DTD SVG 1.1//EN" "http://www.w3.org/Graphics/SVG/1.1/DTD/svg11.dtd">
<svg version="1.1" id="Layer_1" xmlns="http://www.w3.org/2000/svg" xmlns:xlink="http://www.w3.org/1999/xlink" x="0px" y="0px"
	 width="553.229px" height="554.127px" viewBox="0 0 553.229 554.127" enable-background="new 0 0 553.229 554.127"
	 xml:space="preserve">
<g>
	<path stroke="#000000" stroke-width="12" stroke-miterlimit="10" d="M41.742,411.192c1.168,2.029,3.292,3.165,5.477,3.165
		c1.067,0,2.15-0.271,3.143-0.842l7.66-4.408c1.451-0.835,2.511-2.212,2.946-3.829c0.436-1.617,0.211-3.34-0.624-4.791
		c-5.916-10.278-11.138-21.083-15.522-32.115c-0.984-2.475-3.358-3.982-5.868-3.982c-0.776,0-1.565,0.144-2.33,0.448l-8.213,3.265
		c-1.556,0.618-2.802,1.829-3.465,3.367c-0.664,1.538-0.688,3.275-0.07,4.831C29.642,388.289,35.316,400.028,41.742,411.192z"/>
	<path stroke="#000000" stroke-width="12" stroke-miterlimit="10" d="M33.294,339.141c0.875-1.427,1.148-3.144,0.757-4.771
		c-2.763-11.53-4.722-23.37-5.824-35.192c-0.305-3.272-3.056-5.727-6.278-5.727c-0.196,0-0.394,0.009-0.593,0.028l-8.799,0.82
		c-3.471,0.323-6.022,3.399-5.7,6.871C8.053,314,10.18,326.853,13.18,339.371c0.694,2.896,3.281,4.843,6.134,4.843
		c0.486,0,0.981-0.057,1.476-0.175l8.595-2.059C31.012,341.589,32.419,340.568,33.294,339.141z"/>
	<path stroke="#000000" stroke-width="12" stroke-miterlimit="10" d="M12.003,269.081l8.827,0.432
		c0.105,0.005,0.209,0.008,0.313,0.008c3.344,0,6.134-2.626,6.3-6.003c0.581-11.853,2.017-23.763,4.269-35.398
		c0.663-3.423-1.575-6.734-4.997-7.397l-8.676-1.679c-0.406-0.078-0.809-0.116-1.207-0.116c-2.963,0-5.606,2.097-6.19,5.114
		c-2.445,12.625-4.004,25.554-4.636,38.426c-0.082,1.672,0.504,3.309,1.628,4.549C8.76,268.256,10.331,268.999,12.003,269.081z"/>
	<path stroke="#000000" stroke-width="12" stroke-miterlimit="10" d="M24.582,194.701l8.349,2.898
		c0.686,0.238,1.383,0.351,2.07,0.351c2.614,0,5.058-1.636,5.963-4.244c3.892-11.209,8.629-22.228,14.08-32.749
		c0.77-1.486,0.918-3.218,0.411-4.814c-0.506-1.596-1.626-2.925-3.114-3.695l-7.847-4.064c-0.928-0.48-1.92-0.708-2.898-0.708
		c-2.283,0-4.488,1.243-5.61,3.41c-5.922,11.434-11.068,23.405-15.296,35.581c-0.549,1.582-0.447,3.317,0.283,4.823
		C21.701,192.997,23,194.152,24.582,194.701z"/>
	<path stroke="#000000" stroke-width="12" stroke-miterlimit="10" d="M57.677,126.876l7.185,5.146
		c1.079,0.773,2.365,1.181,3.675,1.181c0.343,0,0.688-0.028,1.03-0.084c1.651-0.273,3.127-1.191,4.102-2.553
		c6.881-9.608,14.543-18.844,22.774-27.451c1.157-1.21,1.786-2.83,1.749-4.504c-0.037-1.674-0.738-3.264-1.948-4.421l-6.388-6.107
		c-1.223-1.169-2.793-1.75-4.362-1.75c-1.663,0-3.323,0.653-4.563,1.95c-8.929,9.339-17.243,19.36-24.711,29.786
		c-0.975,1.361-1.369,3.054-1.096,4.706C55.397,124.425,56.315,125.901,57.677,126.876z"/>
	<path stroke="#000000" stroke-width="12" stroke-miterlimit="10" d="M90.863,443.452c-4.174-4.672-8.246-9.594-12.102-14.627
		c-1.019-1.331-2.526-2.201-4.188-2.419c-0.274-0.036-0.549-0.054-0.823-0.054c-1.385,0-2.739,0.456-3.848,1.309l-7.518,5.781
		c-1.328,1.021-2.195,2.528-2.412,4.188c-0.216,1.661,0.236,3.339,1.258,4.667c30.348,39.42,70.708,69.671,116.715,87.482
		c31.45,12.175,64.615,18.349,98.573,18.35c0.003,0,0.003,0,0.007,0c20.854,0,41.58-2.397,61.594-7.123
		c55.132-13.019,105.997-43.817,143.223-86.723c35.7-41.145,58.563-93.867,64.381-148.455c5.848-54.88-5.466-111.406-31.858-159.166
		c-6.768-12.247-14.438-23.988-22.811-34.914c-34.244-44.377-82.258-77.709-135.196-93.857C329.991,10.001,303.109,6,275.957,6
		c-27.7,0-55.033,4.161-81.242,12.367c-18.754,5.873-36.764,13.797-53.841,23.671l6.531-14.775
		c2.451-5.545,0.712-11.484-4.228-14.444c-1.648-0.987-3.597-1.509-5.634-1.509c-4.36,0-8.231,2.382-9.861,6.071l-20.676,46.777
		c-2.204,4.986-1.011,10.284,2.842,13.455c1.307,1.142,2.853,1.904,4.542,2.228c0.441,0.097,0.891,0.167,1.348,0.211l2.089,0.281
		c0.578,0.268,1.197,0.452,1.84,0.536c0.272,0.036,0.545,0.053,0.816,0.053c0.354,0,0.707-0.031,1.054-0.09l44.066,5.932
		c0.608,0.082,1.222,0.124,1.825,0.124h0c5.245,0,9.527-3.121,10.909-7.95c0.864-3.021,0.296-6.481-1.52-9.258
		c-1.671-2.555-4.162-4.173-7.013-4.558l-20.066-2.701c5.534-3.27,11.176-6.316,16.906-9.12
		c33.781-16.532,71.693-25.27,109.636-25.27c12.743,0,25.562,0.984,38.098,2.924c49.736,7.698,97.236,31.097,133.75,65.888
		c8.814,8.398,17.368,17.95,25.412,28.374c31.351,40.911,49.642,91.684,51.507,142.968c1.811,49.812-11.865,100.318-38.508,142.214
		c-27.987,44.011-70.043,78.856-118.423,98.116c-29.154,11.606-60.085,17.492-91.934,17.492c-18.752,0-37.499-2.096-55.718-6.23
		C170.794,508.506,124.767,481.4,90.863,443.452z"/>
	<path stroke="#000000" stroke-width="12" stroke-miterlimit="10" d="M256.28,103.63c-6.295,0-11.043,4.68-11.043,10.886v176.116
		c0,3.128,1.209,5.867,3.214,7.816c1.95,2.014,4.695,3.231,7.833,3.231h121.133c6.206,0,10.886-4.75,10.886-11.049
		c0-6.296-4.68-11.044-10.886-11.044H267.33V114.516C267.33,108.31,262.579,103.63,256.28,103.63z"/>
</g>
</svg>
