<?xml version="1.0" encoding="utf-8"?>
<!-- Generator: Adobe Illustrator 16.0.0, SVG Export Plug-In . SVG Version: 6.00 Build 0)  -->
<!DOCTYPE svg PUBLIC "-//W3C//DTD SVG 1.1//EN" "http://www.w3.org/Graphics/SVG/1.1/DTD/svg11.dtd">
<svg version="1.1" id="Isolation_Mode" xmlns="http://www.w3.org/2000/svg" xmlns:xlink="http://www.w3.org/1999/xlink" x="0px"
	 y="0px" width="50.028px" height="72.952px" viewBox="0 0 50.028 72.952" enable-background="new 0 0 50.028 72.952"
	 xml:space="preserve">
<g>
	<path fill="#13182B" stroke="#FFFFFF" stroke-width="4" stroke-miterlimit="10" d="M46.351,28.845
		c-0.037-0.385-0.361-0.678-0.747-0.678H10.833V12.425c0-4.921,4.004-8.925,8.926-8.925h11.117c4.921,0,8.925,4.004,8.925,8.925
		v1.096c0,0.414,0.336,0.75,0.75,0.75s0.75-0.336,0.75-0.75v-1.096C41.301,6.677,36.624,2,30.876,2H19.759
		C14.01,2,9.333,6.677,9.333,12.425v15.742H5.13c-0.383,0-0.703,0.287-0.746,0.667L2.005,70.119
		c-0.045,0.412,0.252,0.782,0.663,0.828c0.028,0.003,0.056,0.005,0.084,0.005c0.087,0,0.171-0.015,0.249-0.043
		c0.078,0.028,0.162,0.043,0.25,0.043h44.027c0.211,0,0.413-0.089,0.555-0.246c0.143-0.156,0.213-0.365,0.191-0.576L46.351,28.845z
		 M3.589,69.452L5.8,29.667h39.123l1.529,39.785H3.589z"/>
	<path fill="#13182B" stroke="#FFFFFF" stroke-width="4" stroke-miterlimit="10" d="M25.587,51.987c-0.414,0-0.75,0.336-0.75,0.75
		v3.452c0,0.414,0.336,0.75,0.75,0.75s0.75-0.336,0.75-0.75v-2.778c2.063-0.357,3.641-2.149,3.641-4.313
		c0-2.421-1.97-4.39-4.391-4.39c-2.42,0-4.389,1.969-4.389,4.39c0,1.112,0.417,2.174,1.174,2.988c0.148,0.159,0.35,0.239,0.55,0.239
		c0.183,0,0.366-0.066,0.511-0.201c0.303-0.282,0.32-0.756,0.039-1.06c-0.499-0.536-0.773-1.234-0.773-1.967
		c0-1.594,1.296-2.89,2.889-2.89c1.594,0,2.891,1.296,2.891,2.89S27.181,51.987,25.587,51.987z"/>
</g>
</svg>
