<?xml version="1.0" encoding="utf-8"?>
<!-- Generator: Adobe Illustrator 16.0.0, SVG Export Plug-In . SVG Version: 6.00 Build 0)  -->
<!DOCTYPE svg PUBLIC "-//W3C//DTD SVG 1.1//EN" "http://www.w3.org/Graphics/SVG/1.1/DTD/svg11.dtd">
<svg version="1.1" id="Layer_1" xmlns="http://www.w3.org/2000/svg" xmlns:xlink="http://www.w3.org/1999/xlink" x="0px" y="0px"
	 width="83.18px" height="54.064px" viewBox="0 0 83.18 54.064" enable-background="new 0 0 83.18 54.064" xml:space="preserve">
<path fill="#FFFFFF" d="M80.68,0.001h-0.326C80.347,0.001,80.341,0,80.335,0H2.5C2.347,0,2.197,0.018,2.05,0.044
	C2.006,0.053,1.963,0.065,1.919,0.076C1.815,0.101,1.715,0.131,1.616,0.168C1.569,0.186,1.523,0.205,1.478,0.226
	C1.379,0.27,1.285,0.321,1.194,0.377C1.158,0.399,1.12,0.418,1.086,0.443C0.963,0.527,0.847,0.621,0.74,0.726
	C0.737,0.729,0.734,0.73,0.732,0.732C0.72,0.745,0.712,0.76,0.699,0.773C0.61,0.865,0.529,0.965,0.455,1.071
	C0.427,1.111,0.402,1.153,0.377,1.195C0.324,1.28,0.276,1.369,0.234,1.462C0.211,1.511,0.189,1.561,0.17,1.611
	C0.158,1.641,0.143,1.667,0.133,1.697C0.108,1.768,0.096,1.84,0.078,1.912c-0.011,0.043-0.024,0.086-0.033,0.13
	C0.018,2.19,0.002,2.339,0.001,2.487C0.001,2.492,0,2.496,0,2.5v49.063c0,1.381,1.119,2.5,2.5,2.5l78.18,0.001
	c0.663,0,1.299-0.263,1.768-0.732c0.469-0.469,0.732-1.104,0.732-1.768V2.501C83.18,1.121,82.061,0.001,80.68,0.001z M72.961,5.001
	L41.417,29.174L9.872,5L72.961,5.001z M5,7.565l26.635,20.412L5,48.387V7.565z M7.407,49.063l25.871-19.826l6.618,5.071
	c0.448,0.344,0.984,0.516,1.521,0.516s1.072-0.172,1.521-0.516l6.618-5.072L75.43,49.064L7.407,49.063z M78.18,48.651L51.2,27.977
	L78.18,7.301V48.651z"/>
</svg>
