<?xml version="1.0" encoding="utf-8"?>
<!-- Generator: Adobe Illustrator 16.0.0, SVG Export Plug-In . SVG Version: 6.00 Build 0)  -->
<!DOCTYPE svg PUBLIC "-//W3C//DTD SVG 1.1//EN" "http://www.w3.org/Graphics/SVG/1.1/DTD/svg11.dtd">
<svg version="1.1" id="Isolation_Mode" xmlns="http://www.w3.org/2000/svg" xmlns:xlink="http://www.w3.org/1999/xlink" x="0px"
	 y="0px" width="60.561px" height="52px" viewBox="0 0 60.561 52" enable-background="new 0 0 60.561 52" xml:space="preserve">
<g>
	<path fill="none" stroke="#FFFFFF" stroke-width="3" stroke-linejoin="round" stroke-miterlimit="10" d="M42.5,34.5v10
		c0,3.31,2.69,6,6,6h-35c-3.31,0-6-2.69-6-6v-37c0-3.31-2.69-6-6-6h35c3.31,0,6,2.69,6,6v14"/>
	
		<line fill="none" stroke="#FFFFFF" stroke-width="3" stroke-linejoin="round" stroke-miterlimit="10" x1="19" y1="11.251" x2="30" y2="11.251"/>
	
		<line fill="none" stroke="#FFFFFF" stroke-width="3" stroke-linejoin="round" stroke-miterlimit="10" x1="14.958" y1="17.918" x2="34.042" y2="17.918"/>
	
		<line fill="none" stroke="#FFFFFF" stroke-width="3" stroke-linejoin="round" stroke-miterlimit="10" x1="14.958" y1="24.15" x2="34.042" y2="24.15"/>
	<path fill="none" stroke="#FFFFFF" stroke-width="3" stroke-linejoin="round" stroke-miterlimit="10" d="M40.44,32.44l-1.91,1.909
		c-0.8,0.79-2.08,0.79-2.88-0.01c-0.381-0.38-0.591-0.89-0.591-1.43s0.21-1.05,0.591-1.43l8.42-8.41l7.5-7.5l3.62-3.63l2.869,2.869
		L54.44,18.44L40.44,32.44z"/>
	
		<line fill="none" stroke="#FFFFFF" stroke-width="3" stroke-linejoin="round" stroke-miterlimit="10" x1="35.65" y1="34.35" x2="33.5" y2="36.5"/>
	<polyline fill="none" stroke="#FFFFFF" stroke-width="3" stroke-linejoin="round" stroke-miterlimit="10" points="52.5,26.5 
		57.5,21.5 55.44,19.44 52.57,16.57 	"/>
	
		<line fill="none" stroke="#FFFFFF" stroke-width="3" stroke-linejoin="round" stroke-miterlimit="10" x1="56.63" y1="13.37" x2="59.5" y2="10.5"/>
	<path fill="none" stroke="#FFFFFF" stroke-width="3" stroke-linecap="round" stroke-linejoin="round" stroke-miterlimit="10" d="
		M13.617,40.467c4.207,0,4.604-10.084,5.813-10.084c1.187,0,2.123,10.084,3.812,10.084c1.667,0,2.709-5.042,3.813-5.042
		c1.105,0,2.354,5.042,5.313,5.042"/>
</g>
</svg>
