<?xml version="1.0" encoding="utf-8"?>
<!-- Generator: Adobe Illustrator 16.0.0, SVG Export Plug-In . SVG Version: 6.00 Build 0)  -->
<!DOCTYPE svg PUBLIC "-//W3C//DTD SVG 1.1//EN" "http://www.w3.org/Graphics/SVG/1.1/DTD/svg11.dtd">
<svg version="1.1" id="_x34_5_x5F_check" xmlns="http://www.w3.org/2000/svg" xmlns:xlink="http://www.w3.org/1999/xlink" x="0px"
	 y="0px" width="44.566px" height="55.846px" viewBox="0 0 44.566 55.846" enable-background="new 0 0 44.566 55.846"
	 xml:space="preserve">
<g>
	<g>
		<path fill="#FFFFFF" d="M22.057,27.304c-0.311,0-0.625-0.079-0.914-0.244c-4.105-2.345-9.716-6.297-11.03-13.514
			c-0.464-2.539-0.082-6.612,2.52-9.731C14.083,2.074,16.784,0,21.41,0c5.787,0,10.094,3.389,11.239,8.844
			c1.078,5.135-1.177,11.804-7.573,14.614c-0.931,0.408-2.021-0.014-2.433-0.948c-0.41-0.933,0.015-2.022,0.948-2.433
			c4.595-2.019,6.217-6.798,5.444-10.475c-0.777-3.701-3.628-5.911-7.626-5.911c-2.566,0-4.566,0.837-5.942,2.487
			c-1.67,2.003-2.068,4.811-1.723,6.704c0.79,4.341,3.723,7.826,9.229,10.972c0.885,0.505,1.192,1.633,0.687,2.519
			C23.321,26.969,22.698,27.304,22.057,27.304z"/>
	</g>
	<g>
		<path fill="#FFFFFF" d="M17.656,46.725H1.846C0.826,46.725,0,45.898,0,44.879c0-7.39,0.473-12.366,1.404-14.793
			c1.847-4.825,9.715-7.839,10.606-8.166c0.903-0.332,1.912,0.087,2.314,0.961c1.561,3.396,4.073,5.344,6.893,5.345
			c2.832,0,5.441-1.998,6.98-5.345c0.402-0.874,1.409-1.293,2.314-0.961c0.891,0.327,8.758,3.341,10.605,8.169
			c0.364,0.952-0.112,2.02-1.065,2.384c-0.95,0.364-2.02-0.112-2.384-1.065c-0.789-2.063-4.229-4.176-6.946-5.408
			c-2.243,3.737-5.698,5.918-9.504,5.918c-0.001,0-0.001,0-0.001,0c-3.759,0-7.183-2.181-9.419-5.917
			c-2.719,1.232-6.157,3.345-6.946,5.407c-0.403,1.05-1.06,3.929-1.15,11.626h13.954c1.02,0,1.846,0.826,1.846,1.846
			S18.676,46.725,17.656,46.725z"/>
	</g>
	<path fill="#FFFFFF" d="M32.535,31.785c-6.644,0-12.029,5.389-12.029,12.031c0,6.645,5.386,12.029,12.029,12.029
		c6.643,0,12.031-5.385,12.031-12.029C44.566,37.174,39.178,31.785,32.535,31.785z M40.102,40.807l-6.856,8.359
		c-0.326,0.398-0.803,0.641-1.316,0.672c-0.037,0.002-0.074,0.004-0.111,0.004c-0.474,0-0.932-0.182-1.275-0.512l-5.419-5.182
		c-0.737-0.703-0.764-1.873-0.059-2.609c0.704-0.738,1.873-0.766,2.609-0.059l3.979,3.805l5.593-6.82
		c0.646-0.787,1.809-0.902,2.599-0.256C40.633,38.855,40.748,40.02,40.102,40.807z"/>
</g>
</svg>
