<?xml version="1.0" encoding="utf-8"?>
<!-- Generator: Adobe Illustrator 16.0.0, SVG Export Plug-In . SVG Version: 6.00 Build 0)  -->
<!DOCTYPE svg PUBLIC "-//W3C//DTD SVG 1.1//EN" "http://www.w3.org/Graphics/SVG/1.1/DTD/svg11.dtd">
<svg version="1.1" id="_x32_5_icons" xmlns="http://www.w3.org/2000/svg" xmlns:xlink="http://www.w3.org/1999/xlink" x="0px"
	 y="0px" width="44px" height="38px" viewBox="0 0 44 38" enable-background="new 0 0 44 38" xml:space="preserve">
<g>
	<path fill="#FFFFFF" d="M40,21c-0.182,0-0.363-0.05-0.521-0.146L22,10.172L4.521,20.854C4.283,21,3.994,21.04,3.725,20.961
		c-0.27-0.076-0.494-0.264-0.619-0.514l-3-6c-0.23-0.463-0.072-1.025,0.369-1.297l21-13c0.322-0.201,0.73-0.201,1.053,0l21,13
		c0.439,0.271,0.598,0.834,0.367,1.297l-3,6c-0.125,0.25-0.35,0.438-0.619,0.514C40.186,20.988,40.092,21,40,21z M22,8
		c0.182,0,0.361,0.049,0.521,0.146l17.07,10.433l2.105-4.21L22,2.176L2.303,14.37l2.105,4.21l17.07-10.433
		C21.639,8.049,21.82,8,22,8z"/>
	<path fill="#FFFFFF" d="M38,18c-0.553,0-1,0.447-1,1v17h-9V23c0-0.553-0.447-1-1-1H17c-0.553,0-1,0.447-1,1v13H7V19
		c0-0.552-0.447-1-1-1s-1,0.448-1,1v18c0,0.553,0.447,1,1,1h32c0.553,0,1-0.447,1-1V19C39,18.448,38.553,18,38,18z M18,24h8v12h-8
		V24z"/>
	<circle fill="#FFFFFF" cx="24" cy="30" r="1"/>
</g>
</svg>
