<?xml version="1.0" encoding="utf-8"?>
<!-- Generator: Adobe Illustrator 16.0.0, SVG Export Plug-In . SVG Version: 6.00 Build 0)  -->
<!DOCTYPE svg PUBLIC "-//W3C//DTD SVG 1.1//EN" "http://www.w3.org/Graphics/SVG/1.1/DTD/svg11.dtd">
<svg version="1.1" id="icons" xmlns="http://www.w3.org/2000/svg" xmlns:xlink="http://www.w3.org/1999/xlink" x="0px" y="0px"
	 width="57.691px" height="41.912px" viewBox="0 0 57.691 41.912" enable-background="new 0 0 57.691 41.912" xml:space="preserve">
<g>
	<g>
		<g>
			<path fill="#44444D" d="M28.215,23.479c-0.601,0-1.189-0.293-1.544-0.831c-0.561-0.852-0.325-1.997,0.526-2.558
				c2.47-1.626,5.839-4.328,6.587-9.009c0.262-1.666-0.087-4.204-1.475-5.826c-0.899-1.052-2.087-1.563-3.63-1.563
				c-3.025,0-4.264,2.147-4.732,3.428c-1.133,3.09-0.198,6.934,2.173,8.94c0.777,0.659,0.874,1.824,0.216,2.603
				c-0.659,0.777-1.823,0.873-2.603,0.216c-3.55-3.007-4.918-8.486-3.253-13.029C21.822,2.187,24.888,0,28.68,0
				c2.613,0,4.839,0.987,6.437,2.855c2.306,2.697,2.688,6.428,2.314,8.803c-0.979,6.126-5.15,9.506-8.202,11.516
				C28.915,23.38,28.563,23.479,28.215,23.479z"/>
		</g>
		<g>
			<path fill="#44444D" d="M43.006,41.912H14.688c-1.02,0-1.846-0.826-1.846-1.846s0.826-1.846,1.846-1.846h26.361
				c-0.068-5.935-0.466-8.397-0.805-9.414c-0.503-1.506-2.573-3.059-4.387-4.072c-1.638,2.58-4.239,4.118-7.129,4.118
				c-0.001,0-0.001,0-0.001,0c-2.858-0.001-5.438-1.538-7.067-4.117c-1.812,1.014-3.881,2.565-4.384,4.072
				c-0.637,1.911-0.615,3.181-0.585,4.938c0.007,0.399,0.014,0.814,0.014,1.255c0,1.02-0.826,1.846-1.846,1.846
				S13.014,36.02,13.014,35c0-0.418-0.007-0.813-0.014-1.191c-0.032-1.882-0.063-3.658,0.774-6.169
				c1.394-4.178,7.309-6.781,7.979-7.064c0.456-0.194,0.972-0.195,1.43-0.004s0.819,0.559,1.003,1.019
				c0.894,2.235,2.592,3.57,4.542,3.57l0,0c1.96,0,3.725-1.368,4.606-3.57c0.185-0.461,0.546-0.827,1.003-1.019
				c0.458-0.191,0.974-0.19,1.43,0.004c0.67,0.283,6.585,2.887,7.98,7.063c0.856,2.572,0.992,7.838,1.004,11.823
				c0.065,0.189,0.101,0.393,0.101,0.604C44.852,41.086,44.025,41.912,43.006,41.912z"/>
		</g>
		<g>
			<g>
				<path fill="#44444D" d="M46.22,26.319c-1.02,0-1.846-0.826-1.846-1.846s0.826-1.846,1.846-1.846
					c2.561,0,4.644-2.679,4.644-5.972c0-3.29-2.083-5.968-4.644-5.968c-1.311,0-2.609,0.758-3.39,1.977
					c-0.571,0.894-1.345,2.792-0.105,5.479c0.428,0.926,0.023,2.022-0.902,2.449c-0.924,0.43-2.021,0.024-2.449-0.902
					c-1.444-3.128-1.317-6.414,0.348-9.015c1.474-2.304,3.903-3.679,6.499-3.679c4.596,0,8.335,4.333,8.335,9.659
					C54.555,21.984,50.815,26.319,46.22,26.319z"/>
			</g>
			<g>
				<path fill="#44444D" d="M55.846,40.153h-7.294c-1.02,0-1.846-0.826-1.846-1.846s0.826-1.846,1.846-1.846h5.333
					c-0.093-1.213-0.25-2.799-0.503-4.14c-0.39-2.088-1.513-3.266-2.386-3.887c-0.831-0.591-1.026-1.743-0.436-2.574
					c0.592-0.831,1.744-1.025,2.574-0.436c1.17,0.832,3.229,2.745,3.876,6.216c0.534,2.832,0.674,6.444,0.68,6.597
					c0.019,0.501-0.167,0.988-0.515,1.35C56.827,39.949,56.348,40.153,55.846,40.153z"/>
			</g>
			<g>
				<path fill="#44444D" d="M11.471,26.319c-4.596,0-8.335-4.335-8.335-9.663c0-5.326,3.739-9.659,8.335-9.659
					c2.597,0,5.027,1.374,6.502,3.678c1.665,2.601,1.793,5.886,0.351,9.015c-0.428,0.926-1.526,1.33-2.449,0.904
					c-0.926-0.427-1.331-1.523-0.904-2.449c1.239-2.688,0.465-4.587-0.106-5.479c-0.78-1.219-2.08-1.977-3.393-1.977
					c-2.561,0-4.644,2.678-4.644,5.968c0,3.293,2.083,5.972,4.644,5.972c1.02,0,1.846,0.826,1.846,1.846S12.49,26.319,11.471,26.319
					z"/>
			</g>
			<g>
				<path fill="#44444D" d="M9.142,40.153H1.846c-0.502,0-0.981-0.204-1.329-0.564c-0.349-0.361-0.534-0.849-0.516-1.35
					c0.006-0.152,0.145-3.766,0.682-6.602c0.588-3.181,2.329-5.058,3.686-6.07c0.814-0.609,1.974-0.443,2.583,0.374
					c0.61,0.816,0.443,1.974-0.374,2.583c-0.828,0.619-1.894,1.779-2.266,3.792c-0.255,1.347-0.412,2.934-0.505,4.146h5.335
					c1.02,0,1.846,0.826,1.846,1.846S10.161,40.153,9.142,40.153z"/>
			</g>
		</g>
	</g>
</g>
</svg>
