<?xml version="1.0" encoding="utf-8"?>
<!-- Generator: Adobe Illustrator 16.0.0, SVG Export Plug-In . SVG Version: 6.00 Build 0)  -->
<!DOCTYPE svg PUBLIC "-//W3C//DTD SVG 1.1//EN" "http://www.w3.org/Graphics/SVG/1.1/DTD/svg11.dtd">
<svg version="1.1" id="Isolation_Mode" xmlns="http://www.w3.org/2000/svg" xmlns:xlink="http://www.w3.org/1999/xlink" x="0px"
	 y="0px" width="98.835px" height="106.919px" viewBox="0 0 98.835 106.919" enable-background="new 0 0 98.835 106.919"
	 xml:space="preserve">
<path fill="#A7A7A7" d="M97.753,25.604L84.1,13.413L70.001,0.825c-0.642-0.573-1.468-0.864-2.348-0.821
	c-0.07,0.004-0.137,0.023-0.207,0.032c-0.78,0.096-1.507,0.458-2.034,1.049L53.715,14.187c-0.171,0.191-0.308,0.4-0.425,0.617
	l-1.456,1.612l-0.2,0.223l-21.16,23.436L7.89,65.087c-0.273,0.302-0.454,0.66-0.593,1.034c-0.064,0.174-0.14,0.345-0.175,0.527
	l-0.011-0.002L4.36,80.852L0.06,103.051c-0.22,1.135,0.179,2.3,1.048,3.062c0.602,0.528,1.366,0.807,2.143,0.807
	c0.346,0,0.693-0.055,1.03-0.167l20.734-6.927l13.619-4.55l0.44-0.147l-0.005-0.017c0.514-0.171,0.996-0.457,1.386-0.888
	l22.052-24.401l14.235-15.751c1.203-1.331,1.1-3.387-0.232-4.59c-1.329-1.204-3.386-1.1-4.59,0.232L57.744,65.399L37.922,87.333
	l-0.123,0.136l-6.632-5.924l-9.705-8.67l-6.559-5.857l0.051-0.057l20.282-22.464l21.222-23.504l0.301,0.269l11.469,10.244
	l13.49,12.049c0.575,0.514,1.282,0.774,1.996,0.812c0.057,0.003,0.111,0.015,0.168,0.015c0.051,0,0.1-0.013,0.15-0.016
	c0.889-0.004,1.771-0.358,2.409-1.073c0.175-0.195,0.313-0.409,0.432-0.63l11.14-12.47c0.541-0.605,0.822-1.391,0.814-2.199
	c0-0.05,0.01-0.099,0.007-0.149C98.785,26.983,98.396,26.177,97.753,25.604z M17.069,77.667l9.706,8.67l4.926,4.4l-12.157,4.062
	L19.36,94.86l-9.438-8.548l0.058-0.298L12.404,73.5L17.069,77.667z M83.765,36.384l-0.079,0.089l-11.109-9.924L60.802,16.031
	l-0.012-0.011l7.243-8.111l0.063-0.071l11.717,10.461l11.186,9.987l-0.027,0.031L83.765,36.384z"/>
</svg>
