<?xml version="1.0" encoding="utf-8"?>
<!-- Generator: Adobe Illustrator 16.0.0, SVG Export Plug-In . SVG Version: 6.00 Build 0)  -->
<!DOCTYPE svg PUBLIC "-//W3C//DTD SVG 1.1//EN" "http://www.w3.org/Graphics/SVG/1.1/DTD/svg11.dtd">
<svg version="1.1" id="_x31_0_x5F_options" xmlns="http://www.w3.org/2000/svg" xmlns:xlink="http://www.w3.org/1999/xlink" x="0px"
	 y="0px" width="57.692px" height="57.692px" viewBox="0 0 57.692 57.692" enable-background="new 0 0 57.692 57.692"
	 xml:space="preserve">
<g>
	<g>
		<g>
			<path fill="#FFFFFF" d="M30.076,57.692h-2.15c-2.9,0-5.172-1.818-5.172-4.139v-2.188c0-1.415-1.74-2.856-3.448-2.856
				c-0.717,0-1.336,0.257-1.838,0.763l-1.797,1.818c-0.603,0.595-1.42,0.914-2.319,0.914c-1.34,0-2.848-0.707-4.033-1.893
				l-1.522-1.521c-1.126-1.126-1.772-2.565-1.771-3.947c0-1.028,0.372-1.965,1.046-2.638l1.544-1.545
				c0.709-0.709,0.846-2.071,0.332-3.312c-0.237-0.572-0.962-1.902-2.574-1.902l-2.574,0.012C1.625,35.248,0,33.02,0,30.077v-2.155
				c0-2.9,1.82-5.172,4.143-5.172h2.182c0.992,0,2.078-0.89,2.583-2.116c0.235-0.572,0.659-2.024-0.489-3.163l-1.818-1.803
				c-1.527-1.545-1.101-4.27,0.979-6.351L9.1,7.797c1.125-1.126,2.563-1.772,3.945-1.772c1.029,0,1.967,0.372,2.64,1.045
				l1.545,1.543c0.412,0.412,1.05,0.638,1.798,0.638c0.993,0,2.014-0.405,2.663-1.057c0.503-0.506,0.757-1.123,0.754-1.834
				l-0.013-2.562C22.443,1.625,24.671,0,27.614,0h2.151c2.9,0,5.172,1.818,5.172,4.139v2.186c0,1.416,1.74,2.858,3.448,2.858l0,0
				c0.717,0,1.335-0.257,1.837-0.763l1.8-1.818c0.601-0.594,1.419-0.914,2.319-0.914c1.34,0,2.848,0.707,4.032,1.892l1.523,1.523
				c0.888,0.888,1.489,1.993,1.693,3.111c0.246,1.348-0.107,2.614-0.969,3.475l-1.542,1.543c-0.71,0.708-0.846,2.069-0.333,3.31
				c0.236,0.572,0.961,1.902,2.571,1.902l2.577-0.012c2.173,0.011,3.798,2.239,3.798,5.182v2.153c0,2.9-1.82,5.172-4.143,5.172
				h-2.184c-1.006,0-2.068,0.869-2.581,2.114c-0.236,0.573-0.661,2.028,0.488,3.168l1.818,1.802c1.528,1.543,1.101,4.268-0.98,6.349
				l-1.521,1.52c-1.127,1.127-2.567,1.773-3.949,1.773c-1.026,0-1.962-0.369-2.634-1.04l-1.547-1.546
				c-0.412-0.413-1.051-0.639-1.8-0.639c-0.992,0-2.012,0.405-2.661,1.057c-0.504,0.506-0.758,1.124-0.755,1.835l0.014,2.559
				C35.247,56.067,33.019,57.692,30.076,57.692z M19.306,44.817c3.804,0,7.141,3.06,7.141,6.548v2.188
				C26.509,53.626,27.049,54,27.926,54h2.15c0.761,0,1.275-0.218,1.489-0.36l-0.012-2.288c-0.007-1.707,0.626-3.248,1.831-4.458
				c1.337-1.342,3.31-2.144,5.277-2.144c1.736,0,3.302,0.611,4.411,1.721l1.545,1.544c0.346-0.04,0.885-0.254,1.363-0.732
				l1.521-1.52c0.538-0.538,0.748-1.055,0.798-1.307l-1.625-1.611c-1.868-1.854-2.367-4.611-1.302-7.196
				c1.084-2.632,3.494-4.4,5.995-4.4h2.184C53.625,31.186,54,30.646,54,29.769v-2.153c0-0.761-0.218-1.275-0.36-1.488l-2.291,0.011
				c-2.655,0-4.948-1.603-6.015-4.183c-1.086-2.625-0.63-5.572,1.134-7.333l1.542-1.544c0.01-0.099-0.105-0.744-0.725-1.364
				l-1.523-1.523c-0.511-0.511-1.026-0.745-1.308-0.798l-1.61,1.625c-1.204,1.215-2.746,1.857-4.46,1.857l0,0
				c-3.804,0-7.14-3.061-7.14-6.55V4.139c-0.063-0.073-0.603-0.447-1.479-0.447h-2.151c-0.761,0-1.275,0.217-1.488,0.36l0.012,2.291
				c0.007,1.706-0.625,3.247-1.83,4.457c-1.337,1.343-3.31,2.144-5.279,2.144c-1.734,0-3.3-0.61-4.408-1.718l-1.546-1.544
				c-0.35,0.036-0.887,0.25-1.364,0.726l-1.521,1.521c-0.539,0.54-0.748,1.058-0.797,1.309l1.626,1.613
				c1.867,1.851,2.367,4.606,1.303,7.19c-1.084,2.633-3.494,4.402-5.997,4.402H4.143c-0.075,0.063-0.451,0.602-0.451,1.479v2.155
				c0,0.761,0.218,1.275,0.36,1.488l2.29-0.011c2.654,0,4.947,1.603,6.015,4.182c1.086,2.625,0.631,5.572-1.132,7.335l-1.545,1.546
				c-0.01,0.098,0.107,0.743,0.726,1.362l1.522,1.521c0.512,0.512,1.027,0.746,1.309,0.799l1.607-1.625
				C16.05,45.459,17.592,44.817,19.306,44.817z"/>
		</g>
	</g>
	<g>
		<path fill="#FFFFFF" d="M28.846,41.87c-7.18,0-13.022-5.842-13.022-13.022c0-7.183,5.842-13.026,13.022-13.026
			c7.181,0,13.024,5.843,13.024,13.026c0,2.018-0.451,3.955-1.341,5.758c-0.451,0.915-1.557,1.292-2.472,0.838
			c-0.915-0.451-1.29-1.558-0.838-2.472c0.637-1.291,0.959-2.678,0.959-4.125c0-5.146-4.186-9.333-9.332-9.333
			c-5.145,0-9.33,4.187-9.33,9.333c0,5.145,4.185,9.33,9.33,9.33c1.689,0,3.343-0.455,4.783-1.316
			c0.874-0.523,2.008-0.239,2.532,0.637c0.524,0.875,0.239,2.008-0.636,2.532C33.512,41.234,31.203,41.87,28.846,41.87z"/>
	</g>
</g>
</svg>
