<svg width="24" height="24" viewBox="0 0 24 24" fill="none" xmlns="http://www.w3.org/2000/svg">
<g id="icon_file">
<path id="icon_Vector" d="M14.1488 17.8064C14.515 17.4323 14.8052 16.9911 15.0027 16.5082C15.2003 16.0253 15.3011 15.5102 15.2994 14.9927L15.2835 7.29412L15.2837 7.29412L15.2834 7.28877C15.2431 6.56492 14.9267 5.89036 14.3986 5.40418C13.8706 4.918 13.1718 4.65776 12.4461 4.67629C11.7206 4.69481 11.0234 4.99056 10.4974 5.50215C9.97144 6.01375 9.65596 6.70293 9.61633 7.42848L9.61617 7.42847L9.61618 7.43401L9.62164 14.0441C9.62164 14.0441 9.62164 14.0441 9.62164 14.0442C9.62174 14.2721 9.66673 14.4968 9.75416 14.7055C9.8416 14.9142 9.96974 15.1027 10.1313 15.2601C10.2929 15.4176 10.4846 15.5408 10.6955 15.6227C10.9064 15.7047 11.1323 15.7439 11.3601 15.738C11.588 15.7322 11.8134 15.6816 12.0236 15.5891C12.2337 15.4967 12.4246 15.3642 12.5853 15.1992C12.746 15.0343 12.8735 14.8401 12.9605 14.6276C13.0474 14.4151 13.0922 14.1884 13.0921 13.9605L13.09 9.28193L13.09 9.17975L12.9878 9.18199L12.2845 9.19746L12.1867 9.19962L12.1867 9.29743L12.1863 13.9777C12.1823 14.1976 12.0932 14.4101 11.9372 14.5702C11.7812 14.7303 11.5711 14.8249 11.3515 14.8347C11.1314 14.8393 10.9213 14.7569 10.7663 14.6059C10.6112 14.4547 10.5233 14.2465 10.5224 14.026C10.5224 14.0259 10.5224 14.0259 10.5224 14.0258L10.5244 7.40487C10.5392 6.90124 10.7494 6.41759 11.111 6.05696C11.473 5.69599 11.9576 5.48738 12.4614 5.47483C12.965 5.46227 13.4481 5.64662 13.8083 5.98803C14.1683 6.32913 14.3781 6.80081 14.3927 7.30348L14.3961 15.0121C14.3737 15.8027 14.0442 16.5618 13.477 17.1277C12.9094 17.6939 12.1493 18.0212 11.3588 18.0408C10.5684 18.0604 9.80995 17.7707 9.24437 17.2341C8.67912 16.6978 8.35037 15.9565 8.32854 15.1672L8.33096 9.47563L8.331 9.373L8.22841 9.37562L7.52759 9.3935L7.43014 9.39598L7.43014 9.49346L7.4302 15.1839L7.4302 15.184C7.43071 15.9623 7.66172 16.7177 8.09445 17.3545C8.52719 17.9914 9.14205 18.481 9.86127 18.7614C10.5805 19.0418 11.3715 19.1004 12.1345 18.9303C12.8974 18.7602 13.5983 18.3691 14.1488 17.8064ZM14.1488 17.8064L14.0773 17.7364L14.1488 17.8064C14.1488 17.8064 14.1488 17.8064 14.1488 17.8064Z" fill="#666666" stroke="#666666" stroke-width="0.2"/>
</g>
</svg>
